<svg width="22" height="23" viewBox="0 0 22 23" fill="none" xmlns="http://www.w3.org/2000/svg">
<g filter="url(#filter0_d_850_8058)">
<path fill-rule="evenodd" clip-rule="evenodd" d="M6.28548 15.213C6.00148 14.854 5.65648 14.12 5.04247 13.229C4.69447 12.725 3.83148 11.776 3.57448 11.294C3.35148 10.868 3.37548 10.677 3.42848 10.324C3.52248 9.69596 4.16648 9.20696 4.85348 9.27296C5.37248 9.32196 5.81248 9.66496 6.20848 9.98896C6.44748 10.184 6.74148 10.563 6.91848 10.777C7.08148 10.973 7.12147 11.054 7.29548 11.286C7.52548 11.593 7.59748 11.745 7.50948 11.407C7.43848 10.911 7.32247 10.064 7.15447 9.31496C7.02647 8.74696 6.99548 8.65796 6.87348 8.22196C6.74448 7.75796 6.67848 7.43296 6.55748 6.94096C6.47347 6.59296 6.32247 5.88196 6.28148 5.48196C6.22448 4.93496 6.19447 4.04296 6.54548 3.63296C6.82048 3.31196 7.45148 3.21496 7.84247 3.41296C8.35448 3.67196 8.64547 4.41596 8.77847 4.71296C9.01747 5.24696 9.16547 5.86396 9.29448 6.67396C9.45848 7.70496 9.76047 9.13596 9.77047 9.43696C9.79448 9.06796 9.70248 8.29096 9.76648 7.93696C9.82448 7.61596 10.0945 7.24296 10.4325 7.14196C10.7185 7.05696 11.0535 7.02596 11.3485 7.08696C11.6615 7.15096 11.9915 7.37496 12.1145 7.58596C12.4765 8.20996 12.4835 9.48496 12.4985 9.41696C12.5845 9.04096 12.5695 8.18796 12.7825 7.83296C12.9225 7.59896 13.2795 7.38796 13.4695 7.35396C13.7635 7.30196 14.1245 7.28596 14.4335 7.34596C14.6825 7.39496 15.0195 7.69096 15.1105 7.83296C15.3285 8.17696 15.4525 9.14996 15.4895 9.49096C15.5045 9.63196 15.5635 9.09896 15.7825 8.75496C16.1885 8.11596 17.6255 7.99196 17.6805 9.39396C17.7055 10.048 17.7005 10.018 17.7005 10.458C17.7005 10.975 17.6885 11.286 17.6605 11.66C17.6295 12.06 17.5435 12.964 17.4185 13.402C17.3325 13.703 17.0475 14.38 16.7665 14.786C16.7665 14.786 15.6925 16.036 15.5755 16.599C15.4575 17.161 15.4965 17.165 15.4735 17.564C15.4505 17.962 15.5945 18.486 15.5945 18.486C15.5945 18.486 14.7925 18.59 14.3605 18.521C13.9695 18.458 13.4855 17.68 13.3605 17.442C13.1885 17.114 12.8215 17.177 12.6785 17.419C12.4535 17.802 11.9695 18.489 11.6275 18.532C10.9595 18.616 9.57347 18.563 8.48847 18.552C8.48847 18.552 8.67348 17.541 8.26148 17.194C7.95648 16.935 7.43148 16.41 7.11748 16.134L6.28548 15.213Z" fill="white"/>
<path fill-rule="evenodd" clip-rule="evenodd" d="M6.28548 15.213C6.00148 14.854 5.65648 14.12 5.04247 13.229C4.69447 12.725 3.83148 11.776 3.57448 11.294C3.35148 10.868 3.37548 10.677 3.42848 10.324C3.52248 9.69596 4.16648 9.20696 4.85348 9.27296C5.37248 9.32196 5.81248 9.66496 6.20848 9.98896C6.44748 10.184 6.74148 10.563 6.91848 10.777C7.08148 10.973 7.12148 11.054 7.29548 11.286C7.52548 11.593 7.59748 11.745 7.50948 11.407C7.43848 10.911 7.32247 10.064 7.15447 9.31496C7.02647 8.74696 6.99548 8.65796 6.87348 8.22196C6.74448 7.75796 6.67848 7.43296 6.55748 6.94096C6.47348 6.59296 6.32248 5.88196 6.28148 5.48196C6.22448 4.93496 6.19447 4.04296 6.54548 3.63296C6.82048 3.31196 7.45147 3.21496 7.84247 3.41296C8.35447 3.67196 8.64547 4.41596 8.77847 4.71296C9.01747 5.24696 9.16548 5.86396 9.29448 6.67396C9.45848 7.70496 9.76047 9.13596 9.77047 9.43696C9.79447 9.06796 9.70248 8.29096 9.76648 7.93696C9.82448 7.61596 10.0945 7.24296 10.4325 7.14196C10.7185 7.05696 11.0535 7.02596 11.3485 7.08696C11.6615 7.15096 11.9915 7.37496 12.1145 7.58596C12.4765 8.20996 12.4835 9.48496 12.4985 9.41696C12.5845 9.04096 12.5695 8.18796 12.7825 7.83296C12.9225 7.59896 13.2795 7.38796 13.4695 7.35396C13.7635 7.30196 14.1245 7.28596 14.4335 7.34596C14.6825 7.39496 15.0195 7.69096 15.1105 7.83296C15.3285 8.17696 15.4525 9.14996 15.4895 9.49096C15.5045 9.63196 15.5635 9.09896 15.7825 8.75496C16.1885 8.11596 17.6255 7.99196 17.6805 9.39396C17.7055 10.048 17.7005 10.018 17.7005 10.458C17.7005 10.975 17.6885 11.286 17.6605 11.66C17.6295 12.06 17.5435 12.964 17.4185 13.402C17.3325 13.703 17.0475 14.38 16.7665 14.786C16.7665 14.786 15.6925 16.036 15.5755 16.599C15.4575 17.161 15.4965 17.165 15.4735 17.564C15.4505 17.962 15.5945 18.486 15.5945 18.486C15.5945 18.486 14.7925 18.59 14.3605 18.521C13.9695 18.458 13.4855 17.68 13.3605 17.442C13.1885 17.114 12.8215 17.177 12.6785 17.419C12.4535 17.802 11.9695 18.489 11.6275 18.532C10.9595 18.616 9.57347 18.563 8.48847 18.552C8.48847 18.552 8.67348 17.541 8.26148 17.194C7.95648 16.935 7.43148 16.41 7.11748 16.134L6.28548 15.213Z" stroke="black" stroke-width="0.75" stroke-linecap="round" stroke-linejoin="round"/>
<path d="M14.5205 15.5675V12.1085" stroke="black" stroke-width="0.75" stroke-linecap="round"/>
<path d="M12.5048 15.5792L12.4888 12.1062" stroke="black" stroke-width="0.75" stroke-linecap="round"/>
<path d="M10.5088 12.1378L10.5298 15.5638" stroke="black" stroke-width="0.75" stroke-linecap="round"/>
</g>
<defs>
<filter id="filter0_d_850_8058" x="0" y="0.903931" width="22" height="25.1194" filterUnits="userSpaceOnUse" color-interpolation-filters="sRGB">
<feFlood flood-opacity="0" result="BackgroundImageFix"/>
<feColorMatrix in="SourceAlpha" type="matrix" values="0 0 0 0 0 0 0 0 0 0 0 0 0 0 0 0 0 0 127 0" result="hardAlpha"/>
<feOffset dy="1"/>
<feGaussianBlur stdDeviation="1.5"/>
<feColorMatrix type="matrix" values="0 0 0 0 0 0 0 0 0 0 0 0 0 0 0 0 0 0 0.35 0"/>
<feBlend mode="normal" in2="BackgroundImageFix" result="effect1_dropShadow_850_8058"/>
<feBlend mode="normal" in="SourceGraphic" in2="effect1_dropShadow_850_8058" result="shape"/>
</filter>
</defs>
</svg>
